<svg width="48" height="48" viewBox="0 0 48 48" fill="none" xmlns="http://www.w3.org/2000/svg">
<path d="M22.2516 45.9995H24.9642L27.6781 45.9999C27.8264 46 27.9405 45.8377 27.9019 45.6945C27.7772 45.2319 27.5573 44.2274 27.2468 42.3566C26.717 39.1656 26.2372 30.0793 26.2372 26.8226V14.3958C26.2372 14.1749 26.0581 14.0005 25.8371 14.0004C25.5381 14.0003 25.2499 14 24.9647 14H24.0926C23.8717 14 23.6926 14.1743 23.6926 14.3952V26.822C23.6926 30.0788 23.2127 39.1651 22.683 42.356C22.3724 44.2269 22.1525 45.2315 22.0278 45.694C21.9893 45.8372 22.1033 45.9995 22.2516 45.9995Z" fill="#282829"/>
<path fill-rule="evenodd" clip-rule="evenodd" d="M25.2708 14.7593C25.2708 14.458 25.0338 14.2137 24.7416 14.2137H19.534C19.2458 14.2137 19.0107 14.4514 19.0049 14.7485C18.9835 15.8612 19.0345 16.5755 19.1123 17.106C19.1629 17.4508 19.2317 17.7439 19.2866 17.9781C19.3114 18.0837 19.3334 18.1774 19.3496 18.2584C19.4591 18.8052 19.5002 19.4883 19.0141 22.1248C18.9847 22.2844 19.0258 22.4494 19.1264 22.5746C19.2269 22.6998 19.3763 22.7723 19.534 22.7723H24.7416C25.0338 22.7723 25.2708 22.528 25.2708 22.2266C25.2708 21.9253 25.0338 21.681 24.7416 21.681H20.1696C20.5408 19.5308 20.5277 18.7452 20.3861 18.0377C20.3565 17.8899 20.3274 17.7678 20.2989 17.6483C20.2503 17.4442 20.2035 17.2475 20.1587 16.9427C20.1041 16.5706 20.0608 16.0659 20.0585 15.3049H24.7416C25.0338 15.3049 25.2708 15.0606 25.2708 14.7593Z" fill="#282829"/>
</svg>
