<svg width="48" height="48" viewBox="0 0 48 48" fill="none" xmlns="http://www.w3.org/2000/svg">
<path d="M22.2699 46H25.0005H27.7255C27.8612 46 27.9579 45.8678 27.9195 45.7377C27.7128 45.0363 27.3734 43.6956 27.2099 42.3565C26.9758 40.4405 26.6833 38.9583 26.42 33.869C26.1567 28.7797 26.2213 25.9037 26.2213 23.533C26.2213 21.1623 26.6689 22.1038 26.6689 18.3906C26.6689 14.6773 25.9965 14 25.5837 14H24.1749C23.8159 14 23.754 14.4679 23.7679 14.7019C23.9826 14.9049 24.412 15.927 24.412 18.3906C24.412 20.8542 23.9513 22.1564 23.7209 22.4995V26.8223C23.7209 30.0791 23.2381 39.1655 22.7051 42.3565C22.3927 44.2265 22.1715 45.2311 22.0461 45.6939C22.0072 45.8372 22.1215 46 22.2699 46Z" fill="#282829"/>
<path d="M25.3044 14.759C25.3044 14.4577 25.0661 14.2134 24.772 14.2134H19.5322C19.3356 14.2134 19.155 14.3244 19.0625 14.5022C18.9699 14.68 18.9805 14.8955 19.09 15.0629C19.1874 15.2117 19.426 15.583 19.5319 16.6957C19.5585 16.9745 19.7867 17.1874 20.0601 17.1883L20.067 17.1884L20.0911 17.1886L20.1865 17.1903C20.2694 17.1921 20.3888 17.1956 20.5324 17.2024C20.8211 17.216 21.2015 17.2424 21.5787 17.2932C21.9336 17.341 22.2575 17.4067 22.4947 17.4911C22.2693 17.5666 21.9653 17.6257 21.6297 17.6683C21.2563 17.7157 20.8779 17.7389 20.5902 17.75C20.447 17.7555 20.3279 17.758 20.245 17.7591L20.1499 17.76L20.1258 17.76L20.1201 17.76C19.9784 17.7593 19.841 17.8164 19.7406 17.9188C19.6401 18.0212 19.5837 18.1604 19.5837 18.3056C19.5837 20.1732 19.2088 21.5177 19.0293 22.0474C18.9727 22.2143 18.9985 22.3988 19.0983 22.5427C19.1982 22.6866 19.3599 22.7721 19.5322 22.7721H24.772C25.0661 22.7721 25.3044 22.5278 25.3044 22.2265C25.3044 21.9251 25.0661 21.6808 24.772 21.6808H20.2469C20.5324 20.5798 20.6768 19.9489 20.6768 18.8577C20.6768 18.8577 21.3503 18.8034 21.7607 18.7513C22.1667 18.6997 22.6119 18.6172 22.9669 18.4769C23.1428 18.4074 23.3342 18.3093 23.4883 18.1636C23.6515 18.0092 23.7962 17.7751 23.7864 17.4699C23.7768 17.1697 23.6222 16.9471 23.4607 16.8018C23.3049 16.6616 23.114 16.5647 22.9352 16.4943C22.5751 16.3525 22.1271 16.2663 21.7173 16.2112C21.2998 16.155 20.8871 16.1267 20.5814 16.1123L20.5336 16.1101C20.4853 15.7877 20.4251 15.5234 20.3598 15.3046H24.772C25.0661 15.3046 25.3044 15.0604 25.3044 14.759Z" fill="#282829"/>
</svg>
