<svg width="48" height="48" viewBox="0 0 48 48" fill="none" xmlns="http://www.w3.org/2000/svg">
<path fill-rule="evenodd" clip-rule="evenodd" d="M21.952 20.4259C22.0346 20.2499 22.2121 20.1375 22.4073 20.1375H25.5926C25.7878 20.1375 25.9653 20.2499 26.0479 20.4259C26.1317 20.6044 26.33 21.0627 26.4742 21.516C26.4876 21.5579 26.5026 21.6031 26.519 21.6521C26.5996 21.8942 26.7115 22.2299 26.8042 22.7342C26.9154 23.3383 26.9999 24.1801 26.9999 25.442L27 45.4992C27 45.6319 26.9471 45.76 26.8528 45.8538C26.7586 45.9476 26.6308 46.0002 26.4975 46.0002H21.5139C21.238 46.0002 21.0138 45.779 21.0114 45.5045L21.0096 45.2609C21.0086 45.1016 21.0071 44.8671 21.0057 44.5659C21.0029 43.9635 21 42.4301 21 41.3622V25.442C21 24.1801 21.0845 23.3383 21.1957 22.7342C21.2885 22.2299 21.4003 21.8942 21.4809 21.6521C21.4973 21.6031 21.5123 21.5579 21.5257 21.516C21.6699 21.0627 21.8682 20.6044 21.952 20.4259ZM22.013 45.0002H25.995L25.995 25.442C25.995 24.2231 25.9132 23.4441 25.8157 22.9143C25.7364 22.4833 25.6472 22.2146 25.5679 21.9756C25.5501 21.9221 25.5328 21.87 25.5162 21.8179C25.4394 21.5765 25.3434 21.3291 25.2636 21.1375H22.7363C22.6566 21.3291 22.5605 21.5765 22.4837 21.8179C22.4671 21.87 22.4499 21.9221 22.4321 21.9756C22.3527 22.2146 22.2635 22.4833 22.1842 22.9143C22.0867 23.4441 22.0049 24.2231 22.0049 25.442V41.3622C22.0049 42.4284 22.0078 43.9601 22.0106 44.5612C22.0114 44.7288 22.0122 44.8756 22.013 45.0002Z" fill="#282829"/>
<path fill-rule="evenodd" clip-rule="evenodd" d="M23.9998 25.8362C23.1673 25.8362 22.4924 26.5078 22.4924 27.3362V29.3362C22.4924 30.1646 23.1673 30.8362 23.9998 30.8362C24.8324 30.8362 25.5073 30.1646 25.5073 29.3362V27.3362C25.5073 26.5078 24.8324 25.8362 23.9998 25.8362ZM25.0048 28.3362V27.3362C25.0048 26.7839 24.5549 26.3362 23.9998 26.3362C23.4448 26.3362 22.9949 26.7839 22.9949 27.3362V28.3362C22.9949 28.8885 23.4448 29.3362 23.9998 29.3362C24.5549 29.3362 25.0048 28.8885 25.0048 28.3362Z" fill="#282829"/>
<path d="M25.1076 19.6619H24.0003L22.8924 19.6621C22.7431 19.6621 22.6218 19.4946 22.6566 19.3493C22.718 19.0937 22.8068 18.6655 22.9219 17.9927C23.1722 16.5307 23.3989 12.3674 23.3989 10.8752V5.19767C23.3989 5.08722 23.4884 5.00024 23.5989 5.00018L24.0001 5H24.4011C24.5115 5 24.6011 5.08697 24.6011 5.19743V10.8749C24.6011 12.3672 24.8278 16.5304 25.078 17.9925C25.1932 18.6653 25.282 19.0935 25.3433 19.3491C25.3782 19.4944 25.2569 19.6619 25.1076 19.6619Z" fill="#282829"/>
<path fill-rule="evenodd" clip-rule="evenodd" d="M23.8555 5.3479C23.8555 5.20983 23.9674 5.0979 24.1055 5.0979H26.5658C26.7019 5.0979 26.813 5.20683 26.8157 5.34294C26.8258 5.85279 26.8017 6.18008 26.765 6.42314C26.7411 6.58112 26.7086 6.71541 26.6826 6.8227C26.6709 6.87111 26.6605 6.91402 26.6529 6.95114C26.6011 7.20171 26.5817 7.5147 26.8114 8.72268C26.8253 8.79585 26.8058 8.87141 26.7583 8.92879C26.7108 8.98616 26.6402 9.01937 26.5658 9.01937H24.1055C23.9674 9.01937 23.8555 8.90744 23.8555 8.76937C23.8555 8.6313 23.9674 8.51937 24.1055 8.51937H26.2655C26.0901 7.53418 26.0963 7.17418 26.1632 6.85003C26.1772 6.78232 26.1909 6.72638 26.2044 6.67161C26.2273 6.5781 26.2495 6.48796 26.2706 6.34833C26.2964 6.17784 26.3169 5.94659 26.318 5.5979H24.1055C23.9674 5.5979 23.8555 5.48597 23.8555 5.3479Z" fill="#282829"/>
</svg>
