<svg width="48" height="48" viewBox="0 0 48 48" fill="none" xmlns="http://www.w3.org/2000/svg">
<path d="M25.1075 16.6619H24.0002H22.8684C22.7321 16.6619 22.6347 16.5284 22.6717 16.3973C22.7679 16.0555 22.8963 15.5237 22.9628 14.9925C23.0727 14.1146 23.21 13.4355 23.3337 11.1036C23.4573 8.77181 23.4269 7.45409 23.4269 6.36786C23.4269 5.28163 23.2168 5.71305 23.2168 4.01169C23.2168 2.31032 23.5325 2 23.7263 2H24.3878C24.5564 2 24.5855 2.21439 24.5789 2.32158C24.4781 2.41463 24.2765 2.88291 24.2765 4.01169C24.2765 5.14046 24.4928 5.73711 24.601 5.89434V7.87495C24.601 9.36717 24.8277 13.5304 25.078 14.9925C25.1931 15.6653 25.2819 16.0935 25.3432 16.3492C25.3781 16.4944 25.2569 16.6619 25.1075 16.6619Z" fill="#282829"/>
<path d="M23.8574 2.34766C23.8574 2.20959 23.9694 2.09766 24.1074 2.09766H26.5677C26.66 2.09766 26.7448 2.14853 26.7883 2.22998C26.8317 2.31143 26.8268 2.4102 26.7754 2.48688C26.7296 2.55508 26.6176 2.72518 26.5679 3.23501C26.5554 3.36275 26.4482 3.4603 26.3199 3.46073L26.3166 3.46075L26.3053 3.46086L26.2605 3.46162C26.2216 3.46246 26.1655 3.46408 26.0981 3.46718C25.9625 3.47342 25.7839 3.48552 25.6068 3.50878C25.4401 3.53066 25.2881 3.56079 25.1767 3.59943C25.2826 3.63407 25.4253 3.66111 25.5828 3.68064C25.7582 3.70238 25.9359 3.71298 26.071 3.71807C26.1382 3.7206 26.1941 3.72175 26.233 3.72226L26.2777 3.72265L26.289 3.72266L26.2917 3.72265C26.3582 3.72232 26.4227 3.7485 26.4699 3.79541C26.517 3.84233 26.5436 3.90612 26.5436 3.97265C26.5436 4.82834 26.7196 5.44438 26.8039 5.68709C26.8304 5.76353 26.8183 5.84808 26.7714 5.91402C26.7245 5.97996 26.6486 6.01912 26.5677 6.01912H24.1074C23.9694 6.01912 23.8574 5.9072 23.8574 5.76912C23.8574 5.63105 23.9694 5.51912 24.1074 5.51912H26.2321C26.0981 5.01465 26.0303 4.72559 26.0303 4.22559C26.0303 4.22559 25.7141 4.20074 25.5213 4.17684C25.3307 4.15322 25.1217 4.11542 24.955 4.05112C24.8724 4.01927 24.7825 3.97436 24.7102 3.90759C24.6335 3.83683 24.5656 3.72957 24.5702 3.58974C24.5747 3.45221 24.6473 3.35021 24.7231 3.28362C24.7963 3.21941 24.8859 3.17499 24.9699 3.14273C25.139 3.07775 25.3493 3.03829 25.5417 3.01303C25.7378 2.9873 25.9315 2.97431 26.0751 2.96771L26.0975 2.96671C26.1202 2.81896 26.1485 2.69791 26.1791 2.59766H24.1074C23.9694 2.59766 23.8574 2.48573 23.8574 2.34766Z" fill="#282829"/>
<path fill-rule="evenodd" clip-rule="evenodd" d="M22.4073 17.1372C22.2122 17.1372 22.0346 17.2509 21.952 17.4289C21.8682 17.6096 21.6699 18.0731 21.5257 18.5316C21.5123 18.574 21.4973 18.6197 21.4809 18.6693C21.4003 18.9141 21.2885 19.2538 21.1957 19.7638C21.0845 20.3749 21 21.2264 21 22.5027V41.6405C21 42.7697 21.1676 43.6311 21.3861 44.2545C21.5973 44.8568 21.8734 45.2843 22.1318 45.4862C22.3636 45.6674 22.7008 45.7898 23.0056 45.8675C23.325 45.9489 23.6826 45.9996 24 45.9996C24.3174 45.9996 24.675 45.9489 24.9944 45.8675C25.2992 45.7898 25.6364 45.6674 25.8682 45.4862C26.1266 45.2843 26.4027 44.8568 26.6139 44.2545C26.8324 43.6311 27 42.7697 27 41.6405V22.5027C27 21.2264 26.9155 20.3749 26.8043 19.7638C26.7115 19.2538 26.5997 18.9141 26.5191 18.6693C26.5027 18.6197 26.4877 18.574 26.4743 18.5316C26.3301 18.0731 26.1318 17.6096 26.048 17.4289C25.9654 17.2509 25.7878 17.1372 25.5927 17.1372H22.4073ZM24.25 22.2388C24.25 22.1007 24.1381 21.9888 24 21.9888C23.8619 21.9888 23.75 22.1007 23.75 22.2388V23.4622H22.5264C22.3883 23.4622 22.2764 23.5741 22.2764 23.7122C22.2764 23.8502 22.3883 23.9622 22.5264 23.9622H23.75V25.1858C23.75 25.3239 23.8619 25.4358 24 25.4358C24.1381 25.4358 24.25 25.3239 24.25 25.1858V23.9622H25.4734C25.6115 23.9622 25.7234 23.8502 25.7234 23.7122C25.7234 23.5741 25.6115 23.4622 25.4734 23.4622H24.25V22.2388Z" fill="#282829"/>
</svg>
